<svg width="26" height="27" viewBox="0 0 26 27" fill="none" xmlns="http://www.w3.org/2000/svg">
<path d="M15.1534 1H15.4432C15.7426 1.12334 15.8433 1.35631 15.8388 1.67282C15.8285 2.35608 15.8356 3.03999 15.8356 3.7239C15.8356 3.80939 15.8356 3.89488 15.8356 3.99864C15.9782 3.99864 16.0821 3.99864 16.186 3.99864C18.81 3.99864 21.4341 3.99994 24.0575 3.99733C24.475 3.99733 24.8629 4.08347 25.0694 4.47959C25.1797 4.69168 25.2346 4.95859 25.2346 5.2007C25.2436 10.7353 25.2417 16.2699 25.2417 21.8038C25.2417 21.8691 25.2443 21.9343 25.2398 21.9989C25.2088 22.4766 24.9345 22.8538 24.5176 22.9609C24.3563 23.002 24.1833 23.0098 24.0155 23.0098C21.3999 23.0124 18.7836 23.0118 16.1679 23.0118H15.8356C15.8356 23.1299 15.8356 23.2173 15.8356 23.3048C15.8356 24.0128 15.8375 24.7209 15.8349 25.4289C15.833 25.842 15.5748 26.06 15.1754 25.9856C14.5907 25.8766 14.006 25.7631 13.4219 25.6508C9.47423 24.8906 5.52656 24.129 1.5776 23.3733C1.30267 23.3204 1.10003 23.2036 1 22.9328V4.02866C1.14133 3.77284 1.36721 3.67234 1.64601 3.62731C2.17714 3.54052 2.7044 3.42697 3.23295 3.32517C6.66627 2.66344 10.1002 2.00303 13.5329 1.33935C14.0744 1.23493 14.6132 1.11355 15.1534 1ZM1.99902 4.57944V22.4316C6.28163 23.2558 10.5552 24.0781 14.8372 24.9023V2.10809C10.5468 2.93361 6.27712 3.75587 1.99902 4.57944ZM22.5 15.5064H15.8536V18.5102H22.5V19.5178H15.8523V21.9872H24.2304V5.01994H15.8543V7.50825H22.5V8.51454H15.8549V11.0139H22.5V12.0078H15.8498V14.5079H22.5006L22.5 15.5064Z" fill="#4B8125" stroke="black" stroke-width="0.2"/>
<path d="M12.5439 8.84532C12.4671 8.97844 12.4207 9.06197 12.3716 9.14355C11.5436 10.5277 10.7175 11.9138 9.88438 13.2947C9.80178 13.4317 9.7992 13.5257 9.88374 13.664C10.7492 15.0821 11.6069 16.5054 12.4665 17.928C12.5116 18.0024 12.553 18.0794 12.6117 18.1832C12.5162 18.1884 12.4484 18.1949 12.3806 18.1949C11.7049 18.1956 11.0286 18.1923 10.3529 18.1982C10.2187 18.1995 10.1393 18.1662 10.0715 18.035C9.58946 17.0979 9.09253 16.168 8.61238 15.2302C8.50654 15.0234 8.44846 14.7917 8.35811 14.5457C8.26969 14.7878 8.20967 15.0286 8.09932 15.2426C7.61142 16.1863 7.11062 17.1227 6.60982 18.0592C6.58014 18.1147 6.51367 18.1884 6.46333 18.1891C5.67857 18.1975 4.89316 18.1949 4.07227 18.1949C4.13487 18.0873 4.17552 18.0116 4.22134 17.9391C5.1113 16.5263 5.99931 15.1121 6.89507 13.7032C6.98155 13.5668 6.98284 13.4735 6.90153 13.3338C6.08256 11.9255 5.27199 10.512 4.45884 9.09982C4.41947 9.0313 4.38139 8.96148 4.32976 8.8675C4.40527 8.85837 4.4569 8.84662 4.50853 8.84662C5.22488 8.84532 5.94123 8.84075 6.65694 8.85249C6.7447 8.8538 6.87507 8.92558 6.91185 9.00128C7.3436 9.89141 7.76567 10.7861 8.17999 11.6841C8.28776 11.9177 8.36198 12.1676 8.46201 12.4365C8.86859 11.2162 9.5688 10.174 10.1154 9.0548C10.1954 8.89165 10.2929 8.83879 10.4691 8.8414C11.1435 8.85119 11.8185 8.84532 12.5446 8.84532H12.5439Z" fill="#4B8125" stroke="black" stroke-width="0.2"/>
</svg>
