<svg width="71" height="63" viewBox="0 0 71 63" fill="none" xmlns="http://www.w3.org/2000/svg">
<g filter="url(#filter0_f_2032_4609)">
<path d="M65.5293 14.821C65.534 13.4479 65.0334 12.1908 64.12 11.2791C63.2051 10.3673 61.9434 9.87765 60.5749 9.88236C54.1328 9.93258 47.5809 9.92316 41.2471 9.91531C38.7739 9.91218 36.3006 9.90904 33.8273 9.90904H27.5422C21.8095 9.90904 16.0783 9.90747 10.3455 9.91061C7.52232 9.91218 5.67836 12.1689 5.68621 14.8712C5.70661 21.748 5.70504 28.6248 5.7019 35.5032C5.70033 38.849 5.69877 42.1948 5.69563 45.5406C5.69563 48.1943 5.05534 51.8822 6.28726 54.3115C8.28187 58.2427 15.2199 56.7565 18.7524 56.7565C24.38 56.7565 30.0076 56.7565 35.6368 56.7565C43.9511 56.7565 52.2653 56.7565 60.5781 56.7565C63.6178 56.7565 65.5073 54.8733 65.5073 51.843C65.5073 48.4721 65.5057 45.1027 65.5042 41.7318C65.4995 32.9122 65.4947 23.7913 65.5293 14.8226V14.821ZM41.8701 46.9325C40.0811 45.1718 37.8872 44.3149 35.3527 44.3887C32.7351 44.464 30.2869 45.663 28.6344 47.6795C26.9929 49.682 26.3071 52.2243 26.6853 54.8671H16.7311V50.6016C17.0089 50.5404 17.2867 50.4792 17.5644 50.418C18.3569 50.2407 19.1746 50.0586 19.9843 49.9174C20.7706 49.7809 21.1974 49.4105 21.4124 48.6776C21.618 47.9809 21.9444 47.2982 22.2599 46.6375L22.3367 46.4774C22.5878 45.9501 22.5643 45.5139 22.2599 45.0619C21.7498 44.3039 21.2539 43.5303 20.7721 42.7801C20.6168 42.5384 20.463 42.2968 20.3092 42.0598L24.2764 38.0988C24.504 38.2448 24.7347 38.3939 24.9685 38.5429C25.6794 38.998 26.4154 39.4688 27.1326 39.9647C27.696 40.3539 28.1982 40.3838 28.8118 40.0683C29.5525 39.687 30.276 39.3872 30.9586 39.1785C31.6256 38.9745 31.9802 38.5743 32.1089 37.8791C32.2627 37.0536 32.4354 36.2486 32.6205 35.3949C32.6833 35.1045 32.7461 34.8127 32.8089 34.5176H38.3925C38.4521 34.7891 38.5133 35.0606 38.5746 35.3337C38.7519 36.1152 38.9355 36.925 39.0673 37.7285C39.2023 38.5508 39.5962 38.998 40.384 39.2272C41.0823 39.4296 41.7666 39.7607 42.4272 40.0809L42.5293 40.1295C43.0471 40.3806 43.485 40.3539 43.9464 40.0448C44.7043 39.5379 45.4764 39.0404 46.2234 38.5586C46.4651 38.4033 46.7037 38.2495 46.9422 38.0957L50.9142 42.041C50.7588 42.2826 50.6019 42.5259 50.4449 42.7707C49.9678 43.513 49.4751 44.2804 48.9698 45.0305C48.6543 45.4982 48.6276 45.9501 48.8834 46.4963C49.2067 47.1852 49.5269 47.9605 49.8894 48.9334C50.0856 49.4607 50.3994 49.7401 50.9047 49.8389C51.7914 50.0131 52.6592 50.203 53.5789 50.4039C53.8833 50.4698 54.1909 50.5373 54.5016 50.6048V54.8529H44.516C44.9256 51.7253 44.0374 49.0621 41.8748 46.9325H41.8701ZM31.4043 47.6011C33.9089 45.7901 37.2783 45.7885 39.7923 47.5964C42.0789 49.241 43.2574 52.3373 42.5842 54.8671H28.6219C27.9392 52.3514 29.1147 49.2567 31.4043 47.6011ZM56.377 54.9V52.7955C56.377 51.9089 56.377 51.0238 56.377 50.1371C56.3738 49.3101 56.1683 49.0527 55.371 48.8832L54.7653 48.7545C53.8315 48.5552 52.8664 48.3496 51.9138 48.1629C51.6376 48.1095 51.5278 48.0138 51.4618 47.7721C51.3489 47.3625 51.2123 46.9357 50.9769 46.5826C50.6442 46.0867 50.685 45.6959 51.1292 45.0902C51.5121 44.5676 51.8636 44.0136 52.2041 43.4769C52.405 43.1615 52.6122 42.8335 52.8224 42.518C53.1787 41.986 53.1253 41.5027 52.6608 41.0429C50.9754 39.3731 49.4343 37.8336 47.9513 36.3333C47.4915 35.8672 46.9924 35.8264 46.4259 36.2062C45.5486 36.7947 44.505 37.4852 43.4175 38.1443C43.2904 38.2212 43.0252 38.2369 42.8384 38.1773C42.5685 38.091 42.3111 37.978 42.0365 37.8587C41.7775 37.7457 41.5092 37.628 41.2314 37.537C40.9803 37.4538 40.883 37.3424 40.8312 37.0788C40.6759 36.2925 40.5064 35.4953 40.3416 34.7248C40.2679 34.3764 40.1925 34.0264 40.1203 33.678C39.9367 32.8039 39.7013 32.6156 38.7974 32.614C36.6537 32.6125 34.5084 32.6109 32.3647 32.614C31.5095 32.614 31.2709 32.8118 31.092 33.6655C31.0214 33.9982 30.9508 34.3309 30.8801 34.6651C30.7122 35.4514 30.538 36.2643 30.3842 37.0678C30.3309 37.3471 30.2226 37.4632 29.9448 37.5448C29.4348 37.6939 28.986 37.8791 28.614 38.0957C28.2201 38.3248 27.9549 38.3075 27.5626 38.0266C26.9851 37.6123 26.3778 37.2263 25.7893 36.8512C25.4471 36.6331 25.0925 36.4071 24.7504 36.1795C24.2105 35.8202 23.7272 35.8688 23.2752 36.3255C21.5662 38.0533 20.0267 39.5928 18.5641 41.0335C18.0854 41.5058 18.0384 41.9892 18.4166 42.5541C18.7242 43.0139 19.0302 43.4894 19.3252 43.9493C19.6673 44.4797 20.0204 45.029 20.3798 45.561C20.5352 45.7885 20.543 45.9297 20.4175 46.1604C20.2339 46.4978 20.0267 46.8792 19.942 47.2856C19.8133 47.904 19.4821 48.1833 18.7587 48.2853C18.0588 48.3842 17.3604 48.5411 16.684 48.6949C16.4078 48.7577 16.1301 48.8204 15.8523 48.8785C15.0441 49.0496 14.8354 49.3054 14.8322 50.1214C14.8291 51.278 14.8307 52.4346 14.8322 53.6037V54.8718C14.7428 54.8843 14.6627 54.8937 14.589 54.8937H13.9471C12.7529 54.8984 11.5178 54.9016 10.3032 54.8937C8.71501 54.8827 7.56155 53.734 7.55998 52.1631C7.55371 43.9367 7.55528 35.5722 7.55685 27.4839V22.6127C7.55685 22.5719 7.55998 22.528 7.56312 22.4856H63.6524V30.1879C63.6524 37.4303 63.6524 44.6727 63.6524 51.9167C63.6524 53.8078 62.5711 54.8953 60.6879 54.8969C59.6584 54.8969 58.6274 54.8969 57.5681 54.8969H56.3754L56.377 54.9ZM7.55371 14.5181C7.56469 12.8986 8.70873 11.7671 10.3361 11.7671C27.1781 11.764 44.0201 11.764 60.8637 11.7671C62.4926 11.7671 63.6382 12.897 63.6492 14.515C63.6586 15.9839 63.6571 17.4779 63.6539 18.9232C63.6539 19.4819 63.6524 20.0422 63.6524 20.6008H7.58039C7.58039 20.6008 7.58039 20.5946 7.58039 20.5914C7.56626 20.48 7.55528 20.3921 7.55528 20.3121L7.55214 19.0817C7.549 17.5862 7.54586 16.0404 7.55528 14.5197L7.55371 14.5181Z" fill="#89B21D" fill-opacity="0.35"/>
<path d="M60.278 14.7002C60.2717 13.8763 59.9296 13.5373 59.0978 13.5342C58.1798 13.5294 57.2602 13.531 56.3421 13.531H55.2153H51.6326C47.9415 13.531 44.2504 13.531 40.5594 13.531C39.6084 13.531 39.3024 13.8355 39.2992 14.7818C39.2961 15.7281 39.2961 16.6744 39.2992 17.6207C39.3008 18.5827 39.5833 18.8604 40.5563 18.862C42.8302 18.862 45.1042 18.862 47.3797 18.862H49.7666H52.2477C53.0748 18.862 53.9034 18.862 54.7304 18.862C56.1852 18.862 57.6384 18.862 59.0931 18.8604C59.9406 18.8604 60.2717 18.5372 60.278 17.7133C60.2858 16.723 60.2858 15.7077 60.278 14.697V14.7002ZM58.3791 15.4205V16.9788H41.1856V15.4205H58.3791Z" fill="#89B21D" fill-opacity="0.35"/>
<path d="M29.2953 14.4036C28.8025 13.9045 28.1528 13.6299 27.4686 13.6299H27.467C26.7844 13.6299 26.1425 13.8967 25.6576 14.3816C25.1664 14.8728 24.8965 15.5256 24.8965 16.2208C24.8965 17.6207 26.0358 18.7663 27.4341 18.7741C27.4404 18.7741 27.4451 18.7741 27.4513 18.7741C28.87 18.7741 30.0329 17.6348 30.047 16.2255C30.0533 15.546 29.7865 14.8995 29.2953 14.4036ZM27.4529 17.073C27.2207 17.0698 27.0025 16.9757 26.8409 16.8093C26.6808 16.643 26.5945 16.4249 26.5992 16.1926C26.6086 15.7155 26.9978 15.3326 27.4702 15.3326C27.4749 15.3326 27.4796 15.3326 27.4827 15.3326C27.7056 15.3357 27.9284 15.4362 28.0948 15.6088C28.2595 15.7799 28.3506 16.0027 28.3459 16.2224C28.3364 16.6979 27.9331 17.0824 27.4513 17.073H27.4529Z" fill="#89B21D" fill-opacity="0.35"/>
<path d="M14.4414 14.3895C13.9502 13.8983 13.3067 13.6284 12.6288 13.6284H12.6162C11.1991 13.6347 10.0504 14.8023 10.0567 16.2304C10.0629 17.6286 11.2054 18.7695 12.6037 18.7727H12.6115C14.038 18.7727 15.1993 17.6255 15.2041 16.2131C15.2056 15.5304 14.9357 14.8823 14.4398 14.3895H14.4414ZM13.5045 16.2209C13.4951 16.6933 13.1012 17.0715 12.6241 17.0715C12.6194 17.0715 12.6162 17.0715 12.6115 17.0715C12.3777 17.0684 12.1611 16.9758 12.0011 16.8094C11.841 16.6447 11.7562 16.425 11.7594 16.1911C11.7688 15.7141 12.158 15.3311 12.6288 15.3311C12.6335 15.3311 12.6366 15.3311 12.6413 15.3311C12.8642 15.3343 13.087 15.4347 13.2518 15.6058C13.415 15.7753 13.5076 15.9997 13.5029 16.2194L13.5045 16.2209Z" fill="#89B21D" fill-opacity="0.35"/>
<path d="M21.8394 14.3675C21.3514 13.8904 20.7205 13.6299 20.0567 13.6299C20.0425 13.6299 20.03 13.6299 20.0159 13.6299C18.5784 13.6534 17.4626 14.8037 17.4767 16.2522C17.4908 17.6442 18.638 18.7741 20.0378 18.7741H20.0441C20.7425 18.7726 21.3953 18.4995 21.8865 18.0036C22.3683 17.5155 22.6319 16.8737 22.6272 16.1942C22.6225 15.5068 22.3416 14.8587 21.8394 14.3675ZM20.9245 16.1957C20.9276 16.4217 20.8413 16.6383 20.6797 16.8046C20.5149 16.9741 20.2936 17.0698 20.0598 17.073C19.8244 17.0777 19.6031 16.9882 19.4368 16.8266C19.2736 16.6665 19.181 16.4515 19.1794 16.2224C19.1747 15.7422 19.5592 15.3436 20.0378 15.3342C20.0425 15.3342 20.0473 15.3342 20.0535 15.3342C20.2685 15.3342 20.4867 15.4252 20.6514 15.5853C20.8225 15.75 20.9229 15.9729 20.9261 16.1973L20.9245 16.1957Z" fill="#89B21D" fill-opacity="0.35"/>
</g>
<path d="M62 11.2917C62.0047 9.91857 61.5041 8.66154 60.5907 7.74976C59.6758 6.83798 58.4141 6.34835 57.0456 6.35306C50.6035 6.40328 44.0516 6.39386 37.7178 6.38602C35.2446 6.38288 32.7713 6.37974 30.298 6.37974H24.0129C18.2802 6.37974 12.549 6.37817 6.81624 6.38131C3.99302 6.38288 2.14907 8.63957 2.15691 11.3419C2.17732 18.2187 2.17575 25.0955 2.17261 31.9739C2.17104 35.3197 2.16947 38.6655 2.16633 42.0113C2.16633 44.665 1.52605 48.3529 2.75797 50.7822C4.75258 54.7134 11.6906 53.2272 15.2231 53.2272C20.8507 53.2272 26.4783 53.2272 32.1075 53.2272C40.4218 53.2272 48.736 53.2272 57.0488 53.2272C60.0885 53.2272 61.978 51.344 61.978 48.3137C61.978 44.9428 61.9764 41.5734 61.9749 38.2025C61.9702 29.3829 61.9655 20.262 62 11.2933V11.2917ZM38.3408 43.4033C36.5518 41.6425 34.3579 40.7856 31.8234 40.8594C29.2058 40.9347 26.7576 42.1337 25.1052 44.1503C23.4636 46.1527 22.7778 48.695 23.156 51.3378H13.2018V47.0723C13.4796 47.0111 13.7574 46.9499 14.0351 46.8887C14.8276 46.7114 15.6453 46.5293 16.455 46.3881C17.2413 46.2516 17.6681 45.8812 17.8831 45.1483C18.0887 44.4516 18.4151 43.7689 18.7306 43.1082L18.8075 42.9481C19.0585 42.4209 19.035 41.9846 18.7306 41.5326C18.2205 40.7746 17.7246 40.001 17.2428 39.2508C17.0875 39.0091 16.9337 38.7675 16.7799 38.5305L20.7471 34.5695C20.9747 34.7155 21.2054 34.8646 21.4392 35.0136C22.1501 35.4687 22.8861 35.9395 23.6033 36.4354C24.1667 36.8246 24.6689 36.8545 25.2825 36.539C26.0232 36.1577 26.7467 35.8579 27.4293 35.6492C28.0963 35.4452 28.451 35.045 28.5796 34.3498C28.7334 33.5244 28.9061 32.7193 29.0912 31.8656C29.154 31.5753 29.2168 31.2834 29.2796 30.9883H34.8632C34.9228 31.2598 34.9841 31.5313 35.0453 31.8044C35.2226 32.5859 35.4062 33.3957 35.538 34.1992C35.673 35.0215 36.0669 35.4687 36.8547 35.6979C37.553 35.9003 38.2373 36.2314 38.8979 36.5516L39 36.6002C39.5178 36.8513 39.9557 36.8246 40.4171 36.5155C41.175 36.0086 41.9471 35.5111 42.6941 35.0293C42.9358 34.874 43.1744 34.7202 43.4129 34.5664L47.3849 38.5117C47.2295 38.7533 47.0726 38.9966 46.9156 39.2414C46.4386 39.9837 45.9458 40.7511 45.4405 41.5012C45.125 41.9689 45.0984 42.4209 45.3542 42.967C45.6774 43.6559 45.9976 44.4312 46.3601 45.4041C46.5563 45.9314 46.8701 46.2108 47.3754 46.3096C48.2621 46.4838 49.1299 46.6737 50.0496 46.8746C50.354 46.9405 50.6616 47.008 50.9723 47.0755V51.3236H40.9867C41.3963 48.196 40.5081 45.5328 38.3455 43.4033H38.3408ZM27.875 44.0718C30.3797 42.2608 33.749 42.2592 36.2631 44.0671C38.5496 45.7117 39.7281 48.808 39.0549 51.3378H25.0926C24.4099 48.8221 25.5854 45.7274 27.875 44.0718ZM52.8477 51.3707V49.2663C52.8477 48.3796 52.8477 47.4945 52.8477 46.6078C52.8445 45.7808 52.639 45.5234 51.8417 45.3539L51.236 45.2252C50.3022 45.0259 49.3371 44.8204 48.3845 44.6336C48.1083 44.5802 47.9985 44.4845 47.9326 44.2428C47.8196 43.8332 47.683 43.4064 47.4476 43.0533C47.1149 42.5574 47.1557 42.1666 47.5999 41.5609C47.9828 41.0383 48.3343 40.4843 48.6748 39.9476C48.8757 39.6322 49.0829 39.3042 49.2932 38.9887C49.6494 38.4567 49.596 37.9734 49.1315 37.5136C47.4461 35.8438 45.905 34.3043 44.422 32.804C43.9622 32.3379 43.4631 32.2971 42.8966 32.6769C42.0193 33.2654 40.9757 33.9559 39.8882 34.615C39.7611 34.6919 39.4959 34.7076 39.3091 34.648C39.0392 34.5617 38.7818 34.4487 38.5072 34.3294C38.2482 34.2164 37.9799 34.0987 37.7021 34.0077C37.451 33.9245 37.3537 33.8131 37.3019 33.5495C37.1466 32.7632 36.9771 31.966 36.8123 31.1955C36.7386 30.8471 36.6632 30.4971 36.591 30.1487C36.4074 29.2746 36.172 29.0863 35.2681 29.0847C33.1244 29.0832 30.9791 29.0816 28.8354 29.0847C27.9802 29.0847 27.7416 29.2825 27.5627 30.1362C27.4921 30.4689 27.4215 30.8016 27.3509 31.1358C27.1829 31.9221 27.0087 32.735 26.8549 33.5385C26.8016 33.8178 26.6933 33.9339 26.4155 34.0156C25.9055 34.1646 25.4567 34.3498 25.0848 34.5664C24.6909 34.7955 24.4256 34.7782 24.0333 34.4973C23.4558 34.083 22.8485 33.697 22.26 33.3219C21.9179 33.1038 21.5632 32.8778 21.2211 32.6502C20.6812 32.2909 20.1979 32.3395 19.7459 32.7962C18.0369 34.524 16.4974 36.0635 15.0348 37.5042C14.5562 37.9765 14.5091 38.4599 14.8873 39.0248C15.1949 39.4846 15.5009 39.9602 15.7959 40.42C16.138 40.9504 16.4911 41.4997 16.8505 42.0317C17.0059 42.2592 17.0137 42.4005 16.8882 42.6311C16.7046 42.9685 16.4974 43.3499 16.4127 43.7563C16.284 44.3747 15.9529 44.654 15.2294 44.756C14.5295 44.8549 13.8311 45.0118 13.1547 45.1656C12.8785 45.2284 12.6008 45.2912 12.323 45.3492C11.5148 45.5203 11.3061 45.7761 11.3029 46.5921C11.2998 47.7487 11.3014 48.9053 11.3029 50.0745V51.3425C11.2135 51.355 11.1335 51.3644 11.0597 51.3644H10.4178C9.22358 51.3691 7.98853 51.3723 6.77387 51.3644C5.18571 51.3535 4.03226 50.2047 4.03069 48.6338C4.02441 40.4074 4.02598 32.0429 4.02755 23.9546V19.0834C4.02755 19.0426 4.03069 18.9987 4.03383 18.9563H60.1231V26.6586C60.1231 33.901 60.1231 41.1434 60.1231 48.3874C60.1231 50.2785 59.0418 51.366 57.1586 51.3676C56.1291 51.3676 55.0981 51.3676 54.0388 51.3676H52.8461L52.8477 51.3707ZM4.02441 10.9888C4.0354 9.3693 5.17943 8.23782 6.80682 8.23782C23.6488 8.23468 40.4908 8.23468 57.3344 8.23782C58.9633 8.23782 60.1089 9.36773 60.1199 10.9857C60.1293 12.4546 60.1278 13.9486 60.1246 15.3939C60.1246 15.9526 60.1231 16.5129 60.1231 17.0716H4.05109C4.05109 17.0716 4.05109 17.0653 4.05109 17.0621C4.03697 16.9507 4.02598 16.8628 4.02598 16.7828L4.02284 15.5524C4.0197 14.0569 4.01656 12.5111 4.02598 10.9904L4.02441 10.9888Z" fill="#4B8125"/>
<path d="M56.7487 11.1709C56.7424 10.347 56.4003 10.008 55.5685 10.0049C54.6505 10.0001 53.7309 10.0017 52.8128 10.0017H51.686H48.1033C44.4122 10.0017 40.7212 10.0017 37.0301 10.0017C36.0791 10.0017 35.7731 10.3062 35.7699 11.2525C35.7668 12.1988 35.7668 13.1451 35.7699 14.0914C35.7715 15.0534 36.054 15.3311 37.027 15.3327C39.3009 15.3327 41.5749 15.3327 43.8504 15.3327H46.2373H48.7184C49.5455 15.3327 50.3741 15.3327 51.2011 15.3327C52.6559 15.3327 54.1091 15.3327 55.5638 15.3311C56.4113 15.3311 56.7424 15.0079 56.7487 14.184C56.7565 13.1937 56.7565 12.1784 56.7487 11.1677V11.1709ZM54.8498 11.8912V13.4495H37.6563V11.8912H54.8498Z" fill="#4B8125"/>
<path d="M25.766 10.8743C25.2732 10.3752 24.6235 10.1006 23.9393 10.1006H23.9377C23.2551 10.1006 22.6132 10.3674 22.1283 10.8523C21.6371 11.3435 21.3672 11.9963 21.3672 12.6915C21.3672 14.0914 22.5065 15.237 23.9048 15.2448C23.9111 15.2448 23.9158 15.2448 23.922 15.2448C25.3407 15.2448 26.5036 14.1055 26.5177 12.6962C26.524 12.0167 26.2572 11.3702 25.766 10.8743ZM23.9236 13.5437C23.6914 13.5405 23.4732 13.4464 23.3116 13.28C23.1515 13.1137 23.0652 12.8956 23.0699 12.6633C23.0793 12.1862 23.4685 11.8033 23.9409 11.8033C23.9456 11.8033 23.9503 11.8033 23.9534 11.8033C24.1763 11.8064 24.3991 11.9069 24.5655 12.0795C24.7302 12.2506 24.8213 12.4734 24.8166 12.6931C24.8071 13.1686 24.4038 13.5531 23.922 13.5437H23.9236Z" fill="#4B8125"/>
<path d="M10.9121 10.8602C10.4209 10.369 9.77744 10.0991 9.09949 10.0991H9.08694C7.66984 10.1054 6.52109 11.273 6.52737 12.7011C6.53365 14.0993 7.67612 15.2402 9.07438 15.2434H9.08223C10.5087 15.2434 11.67 14.0962 11.6748 12.6838C11.6763 12.0011 11.4064 11.353 10.9105 10.8602H10.9121ZM9.97518 12.6916C9.96576 13.164 9.57186 13.5422 9.09479 13.5422C9.09008 13.5422 9.08694 13.5422 9.08223 13.5422C8.8484 13.5391 8.63183 13.4465 8.47176 13.2801C8.31169 13.1154 8.22695 12.8957 8.23009 12.6618C8.2395 12.1848 8.6287 11.8018 9.09949 11.8018C9.1042 11.8018 9.10734 11.8018 9.11205 11.8018C9.33489 11.805 9.55774 11.9054 9.72252 12.0765C9.88573 12.246 9.97832 12.4704 9.97361 12.6901L9.97518 12.6916Z" fill="#4B8125"/>
<path d="M18.3101 10.8382C17.8221 10.3611 17.1912 10.1006 16.5274 10.1006C16.5132 10.1006 16.5007 10.1006 16.4866 10.1006C15.0491 10.1241 13.9333 11.2744 13.9474 12.7229C13.9615 14.1149 15.1087 15.2448 16.5085 15.2448H16.5148C17.2132 15.2433 17.866 14.9702 18.3572 14.4743C18.839 13.9862 19.1026 13.3444 19.0979 12.6649C19.0932 11.9775 18.8123 11.3294 18.3101 10.8382ZM17.3952 12.6664C17.3983 12.8924 17.312 13.109 17.1504 13.2753C16.9856 13.4448 16.7643 13.5405 16.5305 13.5437C16.2951 13.5484 16.0738 13.4589 15.9075 13.2973C15.7443 13.1372 15.6517 12.9222 15.6501 12.6931C15.6454 12.2129 16.0299 11.8143 16.5085 11.8049C16.5132 11.8049 16.518 11.8049 16.5242 11.8049C16.7392 11.8049 16.9574 11.8959 17.1221 12.056C17.2932 12.2207 17.3936 12.4436 17.3968 12.668L17.3952 12.6664Z" fill="#4B8125"/>
<defs>
<filter id="filter0_f_2032_4609" x="0.529297" y="4.88232" width="70" height="57.1499" filterUnits="userSpaceOnUse" color-interpolation-filters="sRGB">
<feFlood flood-opacity="0" result="BackgroundImageFix"/>
<feBlend mode="normal" in="SourceGraphic" in2="BackgroundImageFix" result="shape"/>
<feGaussianBlur stdDeviation="2.5" result="effect1_foregroundBlur_2032_4609"/>
</filter>
</defs>
</svg>
