<svg width="60" height="60" viewBox="0 0 60 60" fill="none" xmlns="http://www.w3.org/2000/svg">
<path d="M46.9935 59.9999C45.9062 59.6979 44.8089 59.4463 43.7519 59.0738C43.1176 58.8524 42.5035 58.5102 41.9499 58.1176C41.4566 57.7653 40.9733 57.6445 40.3794 57.6445C32.074 57.6546 23.7787 57.6546 15.4733 57.6445C12.5337 57.6445 10.2284 55.9133 9.55387 53.1956C9.40287 52.6018 9.37267 51.9576 9.37267 51.3436C9.37267 37.6345 9.37267 23.9254 9.37267 10.2163V9.38083C9.14112 9.38083 8.92971 9.38083 8.72837 9.38083C6.3022 9.38083 3.88609 9.38083 1.45991 9.38083C0.412933 9.38083 -0.0199531 8.96815 0.000181102 7.93141C0.0203153 6.80409 -0.0501545 5.64656 0.171322 4.54943C0.714946 1.87203 3.10085 0.019989 5.89951 0.00992361C10.4498 -0.0102072 15.0002 0.00992361 19.5505 0.00992361C27.9465 0.00992361 36.3525 0.00992361 44.7485 0.00992361C47.4566 0.00992361 49.7921 1.83177 50.4465 4.44878C50.5874 5.03257 50.6277 5.64656 50.6277 6.25049C50.6378 16.1951 50.6277 26.1297 50.6277 36.0743V36.7588C51.2418 36.95 51.8358 37.0909 52.3895 37.3124C56.6478 39.0738 59.1848 42.2142 59.8995 46.784C59.9197 46.8947 59.97 46.9953 60.0002 47.106V49.4513C59.97 49.5419 59.9197 49.6325 59.9096 49.7231C59.1747 54.7054 56.2754 57.8459 51.5942 59.4563C50.829 59.718 50.0136 59.8187 49.2183 59.9999H46.9935ZM48.2821 36.5273C48.2821 36.3662 48.2821 36.2555 48.2821 36.1448C48.2821 26.0894 48.2821 16.0341 48.2821 5.96865C48.2821 3.86498 46.7619 2.35517 44.6478 2.35517C33.4532 2.35517 22.2686 2.35517 11.074 2.35517C10.9331 2.35517 10.7921 2.3753 10.5707 2.39543C11.5472 3.73413 11.7284 5.19362 11.7284 6.73363C11.7082 21.56 11.7183 36.3763 11.7183 51.2027C11.7183 51.4342 11.7183 51.6757 11.7183 51.9073C11.8089 53.7996 13.1378 55.1584 15.0203 55.2993C16.8022 55.4301 18.3123 54.2525 18.6545 52.4206C18.725 52.0381 18.7351 51.6455 18.7351 51.253C18.6847 48.2132 18.6948 48.2636 21.7351 48.2837C26.4465 48.3139 31.1478 48.2837 35.8592 48.2837H36.5337C36.6848 41.6204 41.8895 36.6279 48.2821 36.5273ZM48.2821 57.6546C53.4062 57.6546 57.6646 53.4372 57.6646 48.3743C57.6646 43.0094 53.6378 38.9832 48.2921 38.9732C42.9465 38.9732 38.9197 42.9994 38.9197 48.3642C38.9197 53.4372 43.168 57.6546 48.2921 57.6546H48.2821ZM38.6881 55.2993C38.0035 53.7593 37.319 52.2495 36.6143 50.6591H21.0807C21.2116 52.3199 20.9599 53.8801 19.9532 55.2993H38.6881ZM9.3324 7.01546C9.51361 5.22381 9.18139 3.69387 7.52032 2.78798C6.21159 2.07334 4.91293 2.19412 3.72501 3.07988C2.39615 4.06629 2.20488 5.47545 2.37602 7.01546H9.3324Z" fill="#4B8125"/>
<path d="M23.4364 14.7158C23.4364 15.6117 23.4364 16.5075 23.4364 17.4033C23.4364 18.2891 22.9935 18.7521 22.1176 18.7521C20.2653 18.7521 18.4129 18.7521 16.5606 18.7521C15.7149 18.7521 15.2418 18.2991 15.2418 17.4637C15.2317 15.5915 15.2418 13.7194 15.2418 11.8472C15.2418 11.0319 15.7049 10.5689 16.5102 10.5588C18.4029 10.5488 20.2955 10.5488 22.1881 10.5588C22.9935 10.5588 23.4364 11.0319 23.4465 11.8472C23.4565 12.8034 23.4465 13.7596 23.4465 14.7158H23.4364ZM21.0706 12.9443H17.6076V16.3766H21.0706V12.9443Z" fill="#4B8125"/>
<path d="M15.2317 26.3413C15.2317 25.4455 15.2317 24.5497 15.2317 23.6539C15.2317 22.7278 15.6646 22.2749 16.5807 22.2749C18.413 22.2749 20.2452 22.2749 22.0774 22.2749C22.9935 22.2749 23.4264 22.7178 23.4264 23.6539C23.4264 25.4656 23.4264 27.2774 23.4264 29.0892C23.4264 30.0454 22.9834 30.4682 22.017 30.4682C20.225 30.4682 18.4331 30.4682 16.6311 30.4682C15.6445 30.4682 15.2217 30.0353 15.2217 29.0288C15.2217 28.133 15.2217 27.2372 15.2217 26.3413H15.2317ZM21.0807 24.6604H17.6177V28.0827H21.0807V24.6604Z" fill="#4B8125"/>
<path d="M19.3086 42.184C18.3925 42.184 17.4764 42.184 16.5603 42.184C15.6845 42.184 15.2314 41.721 15.2314 40.8453C15.2314 38.9932 15.2314 37.1412 15.2314 35.2892C15.2314 34.4437 15.6945 33.9907 16.5402 33.9907C18.3925 33.9907 20.2449 33.9907 22.0972 33.9907C22.9731 33.9907 23.4261 34.4437 23.4261 35.3294C23.4261 37.1613 23.4261 38.9932 23.4261 40.8251C23.4261 41.7411 22.9831 42.184 22.0569 42.184C21.1408 42.184 20.2247 42.184 19.3086 42.184ZM21.0603 36.3662H17.5972V39.7985H21.0603V36.3662Z" fill="#4B8125"/>
<path d="M35.8588 13.4777C33.4226 13.4777 30.9863 13.4777 28.54 13.4777C28.3487 13.4777 28.1474 13.4777 27.9561 13.4576C27.3521 13.367 26.9393 12.8738 26.9494 12.2799C26.9595 11.7062 27.3622 11.2432 27.946 11.1526C28.1373 11.1224 28.3387 11.1325 28.5299 11.1325C33.4024 11.1325 38.285 11.1325 43.1575 11.1325C43.3085 11.1325 43.4695 11.1325 43.6205 11.1325C44.3051 11.1929 44.7581 11.676 44.738 12.3202C44.7279 12.9442 44.285 13.3972 43.6306 13.4576C43.4595 13.4777 43.2783 13.4576 43.1071 13.4576C40.691 13.4576 38.2648 13.4576 35.8487 13.4576L35.8588 13.4777Z" fill="#4B8125"/>
<path d="M33.8352 15.8228C35.6674 15.8228 37.4996 15.8228 39.3318 15.8228C40.1674 15.8228 40.6909 16.326 40.6506 17.0507C40.6204 17.7352 40.1271 18.1579 39.3318 18.168C37.3385 18.168 35.3553 18.168 33.362 18.168C31.6607 18.168 29.9694 18.168 28.2681 18.168C27.503 18.168 27.0198 17.7654 26.9493 17.1212C26.8688 16.3764 27.4124 15.8328 28.258 15.8328C30.1104 15.8328 31.9627 15.8328 33.8151 15.8328L33.8352 15.8228Z" fill="#4B8125"/>
<path d="M33.8052 34.5747C35.6576 34.5747 37.5099 34.5747 39.3622 34.5747C39.8455 34.5747 40.3186 34.7056 40.4696 35.1686C40.5904 35.5309 40.5804 36.0141 40.4394 36.3764C40.2482 36.8596 39.7347 36.93 39.2414 36.93C36.3925 36.93 33.5435 36.93 30.7045 36.93C29.8891 36.93 29.0636 36.93 28.2482 36.93C27.4428 36.92 26.9394 36.4368 26.9596 35.7322C26.9797 35.0478 27.473 34.5948 28.2482 34.5948C30.1005 34.5948 31.9529 34.5948 33.8052 34.5948V34.5747Z" fill="#4B8125"/>
<path d="M38.5273 22.8584C40.1884 22.8584 41.8394 22.8584 43.5005 22.8584C44.3461 22.8584 44.8998 23.5127 44.7387 24.2575C44.6078 24.8715 44.1548 25.1936 43.3796 25.1936C40.9434 25.1936 38.5072 25.1936 36.0709 25.1936C35.2354 25.1936 34.3897 25.1936 33.5541 25.1936C32.7387 25.1936 32.2354 24.7306 32.2354 24.026C32.2354 23.3214 32.7387 22.8584 33.5541 22.8584C35.2152 22.8584 36.8662 22.8584 38.5273 22.8584Z" fill="#4B8125"/>
<path d="M31.3797 29.8843C30.3629 29.8843 29.3462 29.8843 28.3294 29.8843C27.4636 29.8843 26.9502 29.4314 26.9502 28.7067C26.9502 27.9819 27.4737 27.5491 28.3395 27.5391C30.4133 27.5391 32.477 27.5391 34.5509 27.5391C35.3965 27.5391 35.8697 27.9618 35.8797 28.6865C35.8898 29.4314 35.4066 29.8742 34.5307 29.8843C33.4737 29.8843 32.4166 29.8843 31.3697 29.8843H31.3797Z" fill="#4B8125"/>
<path d="M31.4601 41.6006C30.4031 41.6006 29.346 41.6006 28.299 41.6006C27.4735 41.6006 26.9702 41.1477 26.9601 40.4431C26.95 39.7184 27.4735 39.2654 28.3292 39.2554C30.4031 39.2554 32.4668 39.2554 34.5406 39.2554C35.4165 39.2554 35.8997 39.6882 35.8997 40.433C35.8997 41.1678 35.4064 41.5905 34.5205 41.5905C33.5037 41.5905 32.4869 41.5905 31.4702 41.5905L31.4601 41.6006Z" fill="#4B8125"/>
<path d="M28.1381 25.1938C27.5039 25.2038 26.9804 24.7106 26.9602 24.0765C26.93 23.4223 27.4535 22.8787 28.1079 22.8687C28.7421 22.8687 29.2656 23.3518 29.2857 23.9859C29.3159 24.6402 28.8025 25.1837 28.1381 25.2038V25.1938Z" fill="#4B8125"/>
<path d="M45.3326 52.5817C45.3326 51.7765 46.0776 51.243 46.8829 51.4946C47.1447 51.5751 47.3863 51.7161 47.648 51.7865C48.2722 51.9677 48.8762 51.6758 49.0876 51.1121C49.3091 50.5283 49.0776 49.9445 48.4735 49.6426C48.0507 49.4413 47.6078 49.2802 47.1849 49.089C45.8762 48.4951 45.1312 47.4785 45.0406 46.0492C44.9601 44.6703 45.5339 43.5631 46.742 42.8685C47.1849 42.6068 47.0843 42.2747 47.1044 41.9224C47.1447 40.9259 48.0104 40.3522 48.8359 40.7951C49.2789 41.0366 49.4802 41.4393 49.44 41.9123C49.3997 42.3451 49.5708 42.5465 49.9735 42.6471C50.195 42.6974 50.4165 42.8082 50.6178 42.9189C51.1514 43.2208 51.3729 43.8248 51.1413 44.3784C50.9198 44.9219 50.3359 45.2239 49.752 45.0628C49.4702 44.9823 49.2084 44.8414 48.9366 44.7508C48.3125 44.5595 47.7084 44.8313 47.4769 45.3849C47.2353 45.9788 47.4769 46.5928 48.101 46.8947C48.5037 47.086 48.9265 47.2369 49.3393 47.4181C50.6782 48.012 51.4333 49.0487 51.5138 50.4981C51.5843 51.8771 50.9702 52.934 49.8125 53.6889C49.6413 53.7996 49.5507 54.0613 49.4702 54.2727C49.4198 54.3935 49.4702 54.5444 49.4601 54.6753C49.4098 55.3899 48.9265 55.8731 48.2621 55.8529C47.6178 55.8328 47.1145 55.3698 47.1447 54.6753C47.1648 54.172 46.9735 53.9606 46.5205 53.8197C45.9064 53.6285 45.3527 53.3265 45.3527 52.5515L45.3326 52.5817Z" fill="#4B8125"/>
</svg>
