<svg width="71" height="71" viewBox="0 0 71 71" fill="none" xmlns="http://www.w3.org/2000/svg">
<rect width="60" height="60" transform="translate(2 2)" fill="white"/>
<g filter="url(#filter0_f_2032_4635)">
<path d="M65.529 10.5712V53.6943C65.4888 53.7849 65.4485 53.8654 65.4183 53.956C64.8848 55.8681 63.5864 56.955 61.6136 57.116C61.1405 57.1563 60.6574 57.116 60.1642 57.116V63.1744C61.4123 63.1744 62.6403 63.2046 63.8682 63.1643C64.5929 63.1442 65.1667 63.3455 65.529 63.9996V65.5192H6.3544C6.24368 65.4387 6.14302 65.3582 6.0323 65.2777C5.65988 64.9959 5.47871 64.6135 5.5693 64.1506C5.65988 63.6675 5.95178 63.3455 6.43492 63.2348C6.65636 63.1844 6.89793 63.1844 7.12944 63.1744C8.37755 63.1744 9.6156 63.1744 10.8738 63.1744V57.1965C10.1189 57.1361 9.37403 57.1663 8.67951 57.0053C6.70669 56.5524 5.52903 54.9422 5.52903 52.7886C5.52903 44.2344 5.52903 35.6803 5.52903 27.1261C5.52903 21.9533 5.49884 16.7705 5.55923 11.5977C5.55923 10.692 5.76054 9.70575 6.15309 8.89059C7.23009 6.61618 9.15259 5.5293 11.6589 5.5293C27.5723 5.5293 43.4858 5.5293 59.3992 5.5293C59.5904 5.5293 59.7917 5.5293 59.983 5.53936C61.6337 5.68025 63.0026 6.35452 64.1098 7.60243C64.8748 8.46791 65.1969 9.51454 65.529 10.5712ZM60.134 54.8114C60.4561 54.8114 60.7077 54.8114 60.9493 54.8114C62.5698 54.8114 63.1737 54.1975 63.1737 52.5873C63.1737 40.7322 63.1737 28.8772 63.1737 17.0221V16.3478H7.88434C7.88434 16.5893 7.88434 16.7906 7.88434 17.002C7.88434 28.8772 7.88434 40.7524 7.88434 52.6276C7.88434 52.8188 7.88434 53.0201 7.89441 53.2113C7.96487 53.9359 8.4782 54.6001 9.16265 54.7208C9.72632 54.8215 10.3101 54.7913 10.9342 54.8215C10.9342 53.7648 10.9342 52.8087 10.9342 51.8527C10.9342 50.6954 11.3368 50.2928 12.4742 50.2928C14.6986 50.2928 16.9231 50.2928 19.1576 50.2928C20.3957 50.2928 20.7782 50.6752 20.7782 51.8929C20.7782 55.4253 20.7782 58.9677 20.7782 62.5001V63.1442H24.0595V62.4095C24.0595 54.6001 24.0595 46.7806 24.0595 38.9711C24.0595 37.7131 24.442 37.3206 25.7001 37.3206C27.8642 37.3206 30.0383 37.3206 32.2024 37.3206C33.5411 37.3206 33.9035 37.6829 33.9035 39.0214C33.9035 46.8309 33.9035 54.6504 33.9035 62.4599V63.1241H37.1848V62.3794C37.1848 57.8507 37.1848 53.322 37.1848 48.7832C37.1848 47.636 37.5874 47.2334 38.7449 47.2334C40.9694 47.2334 43.1939 47.2334 45.4284 47.2334C46.6564 47.2334 47.0389 47.6158 47.0389 48.8537C47.0389 53.4025 47.0389 57.9513 47.0389 62.5102V63.1341H50.3202C50.3202 60.1653 50.3202 57.2368 50.3202 54.3082C50.3202 53.1207 50.3202 51.9231 50.3202 50.7356C50.3202 50.0211 50.6322 49.5984 51.1959 49.4474C52.0414 49.226 52.6554 49.8097 52.6654 50.8362C52.6654 54.7208 52.6654 58.6054 52.6654 62.5001C52.6654 62.7115 52.6654 62.9228 52.6654 63.1442H57.7887V37.9748H52.6654C52.6654 38.2264 52.6654 38.4377 52.6654 38.6491C52.6654 39.9573 52.6755 41.2656 52.6654 42.5739C52.6554 43.3287 52.142 43.852 51.4777 43.8319C50.8335 43.8218 50.3705 43.3186 50.3302 42.594C50.3302 42.4733 50.3302 42.3626 50.3302 42.2418C50.3302 40.5612 50.3302 38.8805 50.3302 37.1999C50.3302 35.9721 50.7127 35.5796 51.9306 35.5796C54.135 35.5796 56.3494 35.5796 58.5537 35.5796C59.7917 35.5796 60.1742 35.962 60.1742 37.1798C60.1742 42.7853 60.1742 48.3908 60.1742 53.9963V54.7913L60.134 54.8114ZM63.1838 13.9526C63.1838 13.2281 63.1838 12.5638 63.1838 11.9097C63.1838 9.26294 61.7847 7.88421 59.1274 7.88421C43.3952 7.88421 27.6528 7.88421 11.9206 7.88421C11.6488 7.88421 11.377 7.88421 11.1053 7.90434C9.60553 8.05529 8.31716 9.02141 8.04539 10.4706C7.83402 11.5977 7.88434 12.7752 7.82395 13.9526H63.1838ZM26.4249 39.7158V63.1442H31.528V39.7158H26.4249ZM44.6433 49.6185H39.5401V63.1442H44.6433V49.6185ZM13.2995 52.6377V63.1341H18.3826V52.6578C18.2618 52.6578 18.1712 52.6377 18.0706 52.6377C16.4903 52.6377 14.91 52.6377 13.2895 52.6377H13.2995Z" fill="#89B21D" fill-opacity="0.35"/>
<path d="M17.8289 34.8047C20.0735 32.5605 22.298 30.3364 24.4922 28.0922C24.603 27.9815 24.5526 27.6393 24.4721 27.4481C23.8481 25.9083 23.9688 24.4592 24.9754 23.1408C26.0021 21.8023 27.4012 21.2589 29.0619 21.5507C31.6588 21.9936 33.1888 24.7711 32.2326 27.2267C32.1722 27.3877 32.0916 27.5487 32.0111 27.7299C33.37 29.0885 34.7187 30.437 36.0776 31.7856C37.3156 33.0234 38.5637 34.2612 39.8018 35.5192C40.0433 35.7607 40.2446 35.8111 40.5667 35.6903C41.6135 35.2877 42.6603 35.328 43.7071 35.7607C43.8581 35.8211 44.14 35.7909 44.2507 35.6802C46.7469 33.2046 49.2331 30.7188 51.7092 28.2331C51.7293 28.2129 51.7394 28.1626 51.7595 28.0922C51.0146 26.9348 50.7932 25.6769 51.2461 24.3183C51.8702 22.4162 53.8531 21.2086 55.846 21.5105C57.8893 21.8225 59.4293 23.5937 59.4394 25.6568C59.4394 27.6896 57.9195 29.5212 55.9266 29.7929C55.3428 29.8735 54.7187 29.8131 54.1349 29.7024C53.7726 29.642 53.5612 29.7024 53.3196 29.9439C50.8939 32.3793 48.4681 34.8148 46.0323 37.2301C45.7605 37.4917 45.7504 37.693 45.8913 38.0351C46.6362 39.8366 46.0423 41.8594 44.452 43.0368C42.9824 44.1237 40.8184 44.0734 39.3891 42.906C37.8491 41.6581 37.3559 39.6152 38.1913 37.8439C38.3523 37.5018 38.3322 37.3106 38.0705 37.0489C35.6145 34.6135 33.1686 32.168 30.7328 29.7225C30.4812 29.4709 30.2899 29.3803 29.9276 29.5414C28.9412 29.9942 27.9145 29.9842 26.9079 29.6118C26.5859 29.491 26.3845 29.5414 26.143 29.7829C24.0292 31.9164 21.8954 34.0398 19.7615 36.1633C19.5199 36.4048 19.5199 36.5759 19.6407 36.8678C20.5869 39.1522 19.4293 41.7285 17.1344 42.4733C14.7388 43.2582 12.2527 41.9097 11.689 39.4642C11.3367 37.9345 11.7293 36.5457 12.8969 35.4588C14.1249 34.3116 15.5843 34.0298 17.1847 34.533C17.3861 34.5934 17.5773 34.694 17.839 34.7946L17.8289 34.8047ZM55.2723 23.8151C54.2456 23.7849 53.3901 24.6001 53.3498 25.6165C53.3096 26.6531 54.1551 27.5387 55.1918 27.5588C56.2084 27.5689 57.064 26.7336 57.0841 25.7272C57.1042 24.7108 56.2789 23.8453 55.2623 23.8252L55.2723 23.8151ZM43.8481 39.6655C43.8682 38.639 43.0428 37.7836 42.0262 37.7634C40.9895 37.7332 40.1037 38.5987 40.1037 39.6353C40.1037 40.6517 40.9492 41.4971 41.9558 41.5071C42.9724 41.5071 43.8279 40.692 43.838 39.6655H43.8481ZM30.1591 25.6668C30.1591 24.6303 29.3236 23.8151 28.307 23.8151C27.2904 23.8151 26.4449 24.6504 26.4349 25.6668C26.4248 26.7034 27.3005 27.5689 28.3372 27.5588C29.3538 27.5387 30.1691 26.7034 30.1691 25.6668H30.1591ZM17.6176 38.5283C17.6176 37.4917 16.8224 36.6665 15.7957 36.6363C14.759 36.6162 13.8833 37.4816 13.8833 38.5081C13.8833 39.5246 14.7187 40.3498 15.7555 40.3599C16.7922 40.3599 17.6075 39.5548 17.6176 38.5182V38.5283Z" fill="#89B21D" fill-opacity="0.35"/>
<path d="M14.9103 22.6376C14.0346 22.6376 13.1488 22.6376 12.2731 22.6376C11.4679 22.6275 10.9344 22.1444 10.9445 21.4601C10.9445 20.7758 11.4779 20.3028 12.2932 20.2927C14.0547 20.2826 15.8061 20.2826 17.5675 20.2927C18.3728 20.2927 18.9062 20.7858 18.8962 21.4702C18.8962 22.1545 18.3627 22.6275 17.5474 22.6376C16.6717 22.6476 15.7859 22.6376 14.9103 22.6376Z" fill="#89B21D" fill-opacity="0.35"/>
<path d="M14.8798 28.2635C14.0242 28.2635 13.1586 28.2635 12.303 28.2635C11.4877 28.2635 10.9543 27.8006 10.9341 27.1263C10.914 26.4319 11.4676 25.9287 12.303 25.9287C14.0443 25.9287 15.7756 25.9287 17.5169 25.9287C18.3523 25.9287 18.9059 26.4319 18.8858 27.1263C18.8657 27.8006 18.3322 28.2534 17.5169 28.2635C16.6412 28.2635 15.7555 28.2635 14.8798 28.2635Z" fill="#89B21D" fill-opacity="0.35"/>
<path d="M23.234 21.4703C23.234 22.1043 22.7106 22.6377 22.0865 22.6377C21.4725 22.6377 20.9189 22.0842 20.9189 21.4804C20.9189 20.8665 21.4625 20.313 22.0765 20.313C22.7005 20.313 23.2239 20.8363 23.2239 21.4703H23.234Z" fill="#89B21D" fill-opacity="0.35"/>
<path d="M51.4883 48.0082C50.8643 48.0082 50.3208 47.495 50.3107 46.871C50.3006 46.2471 50.824 45.7137 51.4581 45.7036C52.0923 45.7036 52.6257 46.2169 52.6358 46.8308C52.6358 47.4446 52.1124 47.9881 51.4883 47.9982V48.0082Z" fill="#89B21D" fill-opacity="0.35"/>
<path d="M44.8044 9.74609C48.9815 9.74609 53.1587 9.74609 57.3358 9.74609C57.4767 9.74609 57.6076 9.74609 57.7485 9.74609C58.6443 9.74609 59.1979 10.209 59.1979 10.9236C59.1979 11.6381 58.6342 12.0909 57.7384 12.0909C49.1124 12.0909 40.4762 12.0909 31.8502 12.0909C30.7731 12.0909 30.129 11.306 30.5114 10.4606C30.7731 9.88699 31.2764 9.74609 31.8703 9.74609C34.6081 9.74609 37.3358 9.74609 40.0736 9.74609C41.6539 9.74609 43.2341 9.74609 44.8144 9.74609H44.8044Z" fill="#89B21D" fill-opacity="0.35"/>
<path d="M13.0276 9.75586C13.6316 9.75586 14.1952 10.3094 14.1952 10.9132C14.1952 11.517 13.6416 12.0806 13.0377 12.0806C12.4338 12.0806 11.8701 11.5271 11.8701 10.9233C11.8701 10.3194 12.4237 9.75586 13.0276 9.75586Z" fill="#89B21D" fill-opacity="0.35"/>
<path d="M17.7181 9.75586C18.322 9.75586 18.8756 10.3094 18.8857 10.9132C18.8857 11.517 18.3321 12.0705 17.7281 12.0806C17.1242 12.0806 16.5706 11.5271 16.5605 10.9233C16.5605 10.3194 17.1141 9.76592 17.7181 9.75586Z" fill="#89B21D" fill-opacity="0.35"/>
<path d="M22.3889 9.75591C22.9928 9.73579 23.5565 10.2792 23.5766 10.8931C23.5968 11.4969 23.0532 12.0605 22.4392 12.0806C21.8353 12.1008 21.2716 11.5573 21.2515 10.9434C21.2314 10.3396 21.7749 9.77604 22.3889 9.75591Z" fill="#89B21D" fill-opacity="0.35"/>
</g>
<path d="M61.9997 7.04193V50.165C61.9595 50.2556 61.9192 50.3361 61.889 50.4267C61.3556 52.3388 60.0571 53.4257 58.0843 53.5867C57.6112 53.627 57.1281 53.5867 56.6349 53.5867V59.6451C57.883 59.6451 59.111 59.6753 60.3389 59.635C61.0637 59.6149 61.6374 59.8162 61.9997 60.4703V61.9899H2.8251C2.71438 61.9094 2.61373 61.8289 2.50301 61.7484C2.13059 61.4666 1.94941 61.0842 2.04 60.6213C2.13059 60.1382 2.42248 59.8162 2.90562 59.7055C3.12706 59.6552 3.36863 59.6552 3.60014 59.6451C4.84825 59.6451 6.0863 59.6451 7.34448 59.6451V53.6672C6.58957 53.6068 5.84473 53.637 5.15021 53.476C3.17739 53.0232 1.99974 51.413 1.99974 49.2593C1.99974 40.7051 1.99974 32.151 1.99974 23.5968C1.99974 18.424 1.96954 13.2412 2.02993 8.06843C2.02993 7.1627 2.23124 6.17645 2.62379 5.36129C3.70079 3.08688 5.62329 2 8.12958 2C24.043 2 39.9565 2 55.8699 2C56.0611 2 56.2624 2 56.4537 2.01006C58.1044 2.15096 59.4733 2.82523 60.5805 4.07313C61.3455 4.93861 61.6676 5.98524 61.9997 7.04193ZM56.6047 51.2821C56.9268 51.2821 57.1784 51.2821 57.42 51.2821C59.0405 51.2821 59.6444 50.6682 59.6444 49.058C59.6444 37.203 59.6444 25.3479 59.6444 13.4928V12.8185H4.35505C4.35505 13.06 4.35505 13.2613 4.35505 13.4727C4.35505 25.3479 4.35505 37.2231 4.35505 49.0983C4.35505 49.2895 4.35505 49.4908 4.36511 49.682C4.43557 50.4066 4.94891 51.0708 5.63336 51.1916C6.19702 51.2922 6.78081 51.262 7.40487 51.2922C7.40487 50.2355 7.40487 49.2794 7.40487 48.3234C7.40487 47.1661 7.80749 46.7635 8.94488 46.7635C11.1693 46.7635 13.3938 46.7635 15.6283 46.7635C16.8664 46.7635 17.2489 47.1459 17.2489 48.3636C17.2489 51.896 17.2489 55.4384 17.2489 58.9708V59.6149H20.5302V58.8802C20.5302 51.0708 20.5302 43.2513 20.5302 35.4418C20.5302 34.1838 20.9127 33.7913 22.1709 33.7913C24.3349 33.7913 26.509 33.7913 28.6731 33.7913C30.0118 33.7913 30.3742 34.1536 30.3742 35.4921C30.3742 43.3016 30.3742 51.1211 30.3742 58.9306V59.5948H33.6555V58.8501C33.6555 54.3214 33.6555 49.7927 33.6555 45.2539C33.6555 44.1067 34.0581 43.7041 35.2156 43.7041C37.4401 43.7041 39.6646 43.7041 41.8991 43.7041C43.1271 43.7041 43.5096 44.0865 43.5096 45.3244C43.5096 49.8732 43.5096 54.422 43.5096 58.9809V59.6048H46.7909C46.7909 56.636 46.7909 53.7075 46.7909 50.7789C46.7909 49.5914 46.7909 48.3938 46.7909 47.2063C46.7909 46.4918 47.1029 46.0691 47.6666 45.9182C48.5121 45.6967 49.1261 46.2804 49.1361 47.3069C49.1361 51.1915 49.1361 55.0762 49.1361 58.9708C49.1361 59.1822 49.1361 59.3935 49.1361 59.6149H54.2594V34.4455H49.1361C49.1361 34.6971 49.1361 34.9084 49.1361 35.1198C49.1361 36.428 49.1462 37.7363 49.1361 39.0446C49.1261 39.7994 48.6127 40.3227 47.9484 40.3026C47.3042 40.2925 46.8412 39.7893 46.8009 39.0647C46.8009 38.944 46.8009 38.8333 46.8009 38.7125C46.8009 37.0319 46.8009 35.3512 46.8009 33.6706C46.8009 32.4428 47.1834 32.0503 48.4013 32.0503C50.6057 32.0503 52.8201 32.0503 55.0244 32.0503C56.2624 32.0503 56.6449 32.4327 56.6449 33.6505C56.6449 39.256 56.6449 44.8615 56.6449 50.467V51.262L56.6047 51.2821ZM59.6545 10.4233C59.6545 9.69876 59.6545 9.03455 59.6545 8.38041C59.6545 5.73365 58.2554 4.35491 55.5981 4.35491C39.8659 4.35491 24.1235 4.35491 8.39128 4.35491C8.11952 4.35491 7.84775 4.35491 7.57598 4.37504C6.07623 4.526 4.78786 5.49212 4.51609 6.9413C4.30472 8.06843 4.35505 9.24589 4.29465 10.4233H59.6545ZM22.8956 36.1865V59.6149H27.9987V36.1865H22.8956ZM41.114 46.0892H36.0108V59.6149H41.114V46.0892ZM9.77025 49.1084V59.6048H14.8533V49.1285C14.7325 49.1285 14.6419 49.1084 14.5413 49.1084C12.961 49.1084 11.3807 49.1084 9.76018 49.1084H9.77025Z" fill="#4B8125"/>
<path d="M14.2996 31.2754C16.5442 29.0312 18.7687 26.8071 20.9629 24.5629C21.0737 24.4522 21.0233 24.11 20.9428 23.9188C20.3188 22.379 20.4395 20.9299 21.4461 19.6115C22.4728 18.273 23.8719 17.7296 25.5327 18.0215C28.1295 18.4643 29.6595 21.2418 28.7033 23.6974C28.6429 23.8584 28.5623 24.0194 28.4818 24.2006C29.8407 25.5592 31.1894 26.9077 32.5483 28.2563C33.7863 29.4941 35.0344 30.732 36.2725 31.9899C36.514 32.2314 36.7153 32.2818 37.0374 32.161C38.0842 31.7585 39.131 31.7987 40.1778 32.2314C40.3288 32.2918 40.6107 32.2616 40.7214 32.1509C43.2176 29.6753 45.7038 27.1895 48.1799 24.7038C48.2 24.6836 48.2101 24.6333 48.2302 24.5629C47.4853 23.4055 47.2639 22.1476 47.7168 20.789C48.3409 18.8869 50.3238 17.6793 52.3168 17.9812C54.36 18.2932 55.9 20.0644 55.9101 22.1275C55.9101 24.1603 54.3902 25.9919 52.3973 26.2637C51.8135 26.3442 51.1894 26.2838 50.6056 26.1731C50.2433 26.1127 50.0319 26.1731 49.7903 26.4146C47.3646 28.85 44.9388 31.2855 42.503 33.7008C42.2312 33.9624 42.2211 34.1637 42.362 34.5059C43.1069 36.3073 42.513 38.3301 40.9227 39.5075C39.4531 40.5944 37.2891 40.5441 35.8598 39.3767C34.3198 38.1288 33.8266 36.0859 34.662 34.3146C34.823 33.9725 34.8029 33.7813 34.5412 33.5196C32.0852 31.0842 29.6393 28.6387 27.2035 26.1932C26.9519 25.9416 26.7606 25.851 26.3983 26.0121C25.4119 26.4649 24.3852 26.4549 23.3787 26.0825C23.0566 25.9617 22.8552 26.0121 22.6137 26.2536C20.4999 28.3871 18.3661 30.5105 16.2322 32.634C15.9906 32.8755 15.9906 33.0466 16.1114 33.3385C17.0576 35.6229 15.9 38.1992 13.6051 38.944C11.2096 39.7289 8.72339 38.3804 8.15973 35.9349C7.80744 34.4052 8.19999 33.0164 9.36758 31.9295C10.5956 30.7823 12.055 30.5005 13.6554 31.0037C13.8568 31.0641 14.048 31.1647 14.3097 31.2653L14.2996 31.2754ZM51.743 20.2858C50.7163 20.2556 49.8608 21.0708 49.8205 22.0872C49.7803 23.1238 50.6258 24.0094 51.6625 24.0295C52.6791 24.0396 53.5347 23.2043 53.5548 22.1979C53.5749 21.1815 52.7496 20.316 51.733 20.2959L51.743 20.2858ZM40.3188 36.1362C40.3389 35.1097 39.5135 34.2543 38.4969 34.2341C37.4602 34.2039 36.5744 35.0694 36.5744 36.106C36.5744 37.1224 37.4199 37.9678 38.4265 37.9778C39.4431 37.9778 40.2986 37.1627 40.3087 36.1362H40.3188ZM26.6298 22.1375C26.6298 21.101 25.7944 20.2858 24.7777 20.2858C23.7611 20.2858 22.9156 21.1211 22.9056 22.1375C22.8955 23.1741 23.7712 24.0396 24.8079 24.0295C25.8245 24.0094 26.6398 23.1741 26.6398 22.1375H26.6298ZM14.0883 34.999C14.0883 33.9624 13.2931 33.1372 12.2664 33.107C11.2297 33.0869 10.354 33.9523 10.354 34.9788C10.354 35.9953 11.1894 36.8205 12.2262 36.8306C13.2629 36.8306 14.0782 36.0255 14.0883 34.9889V34.999Z" fill="#4B8125"/>
<path d="M11.381 19.1083C10.5053 19.1083 9.61951 19.1083 8.74381 19.1083C7.93858 19.0982 7.40511 18.6151 7.41518 17.9308C7.41518 17.2465 7.94865 16.7735 8.76395 16.7634C10.5254 16.7533 12.2768 16.7533 14.0382 16.7634C14.8435 16.7634 15.3769 17.2565 15.3669 17.9409C15.3669 18.6252 14.8334 19.0982 14.0181 19.1083C13.1424 19.1183 12.2566 19.1083 11.381 19.1083Z" fill="#4B8125"/>
<path d="M11.3505 24.7342C10.4949 24.7342 9.62929 24.7342 8.77373 24.7342C7.95843 24.7342 7.42496 24.2713 7.40483 23.597C7.3847 22.9026 7.9383 22.3994 8.77373 22.3994C10.515 22.3994 12.2463 22.3994 13.9876 22.3994C14.823 22.3994 15.3766 22.9026 15.3565 23.597C15.3364 24.2713 14.8029 24.7241 13.9876 24.7342C13.1119 24.7342 12.2262 24.7342 11.3505 24.7342Z" fill="#4B8125"/>
<path d="M19.7047 17.941C19.7047 18.575 19.1813 19.1084 18.5572 19.1084C17.9432 19.1084 17.3896 18.5549 17.3896 17.9511C17.3896 17.3372 17.9332 16.7837 18.5472 16.7837C19.1712 16.7837 19.6946 17.307 19.6946 17.941H19.7047Z" fill="#4B8125"/>
<path d="M47.959 44.4789C47.335 44.4789 46.7915 43.9657 46.7814 43.3417C46.7713 42.7178 47.2947 42.1844 47.9289 42.1743C48.563 42.1743 49.0964 42.6876 49.1065 43.3015C49.1065 43.9153 48.5831 44.4588 47.959 44.4689V44.4789Z" fill="#4B8125"/>
<path d="M41.2751 6.2168C45.4522 6.2168 49.6294 6.2168 53.8065 6.2168C53.9474 6.2168 54.0783 6.2168 54.2192 6.2168C55.115 6.2168 55.6686 6.67973 55.6686 7.39425C55.6686 8.10878 55.105 8.56165 54.2091 8.56165C45.5831 8.56165 36.9469 8.56165 28.3209 8.56165C27.2439 8.56165 26.5997 7.77668 26.9822 6.93132C27.2439 6.35769 27.7471 6.2168 28.341 6.2168C31.0788 6.2168 33.8065 6.2168 36.5443 6.2168C38.1246 6.2168 39.7048 6.2168 41.2851 6.2168H41.2751Z" fill="#4B8125"/>
<path d="M9.49834 6.22656C10.1023 6.22656 10.6659 6.78007 10.6659 7.38389C10.6659 7.98772 10.1123 8.55129 9.50841 8.55129C8.90448 8.55129 8.34082 7.99778 8.34082 7.39396C8.34082 6.79013 8.89442 6.22656 9.49834 6.22656Z" fill="#4B8125"/>
<path d="M14.1888 6.22656C14.7927 6.22656 15.3463 6.78007 15.3564 7.38389C15.3564 7.98772 14.8028 8.54122 14.1988 8.55129C13.5949 8.55129 13.0413 7.99778 13.0312 7.39396C13.0312 6.79013 13.5848 6.23663 14.1888 6.22656Z" fill="#4B8125"/>
<path d="M18.8596 6.22662C19.4635 6.20649 20.0272 6.74993 20.0473 7.36382C20.0675 7.96764 19.5239 8.53121 18.9099 8.55134C18.306 8.57147 17.7424 8.02803 17.7222 7.41414C17.7021 6.81031 18.2456 6.24674 18.8596 6.22662Z" fill="#4B8125"/>
<defs>
<filter id="filter0_f_2032_4635" x="0.521484" y="0.529297" width="70.0078" height="69.9897" filterUnits="userSpaceOnUse" color-interpolation-filters="sRGB">
<feFlood flood-opacity="0" result="BackgroundImageFix"/>
<feBlend mode="normal" in="SourceGraphic" in2="BackgroundImageFix" result="shape"/>
<feGaussianBlur stdDeviation="2.5" result="effect1_foregroundBlur_2032_4635"/>
</filter>
</defs>
</svg>
