<svg width="17" height="26" viewBox="0 0 17 26" fill="none" xmlns="http://www.w3.org/2000/svg">
<path d="M16.8888 3.26076V17.8491C16.8888 19.6504 15.4293 21.1099 13.628 21.1099H4.36951V16.8873H11.5138C12.1511 16.8873 12.6662 16.3708 12.6662 15.7349V5.37495C12.6662 4.73764 12.1497 4.22255 11.5138 4.22255H0V0H13.6265C15.4279 0 16.8873 1.45941 16.8873 3.26076H16.8888Z" fill="url(#paint0_linear_1907_3435)"/>
<path d="M8.59024 8.44531H4.36914V12.6664H8.59024V8.44531Z" fill="url(#paint1_linear_1907_3435)"/>
<path d="M4.36953 21.1104H0.148438V25.3329H4.36953V21.1104Z" fill="url(#paint2_linear_1907_3435)"/>
<defs>
<linearGradient id="paint0_linear_1907_3435" x1="0.14405" y1="-4.07414" x2="20.7301" y2="26.8835" gradientUnits="userSpaceOnUse">
<stop stop-color="#AACC19"/>
<stop offset="1" stop-color="#4B8125"/>
</linearGradient>
<linearGradient id="paint1_linear_1907_3435" x1="-2.20913" y1="-2.50976" x2="18.3769" y2="28.4479" gradientUnits="userSpaceOnUse">
<stop stop-color="#AACC19"/>
<stop offset="1" stop-color="#4B8125"/>
</linearGradient>
<linearGradient id="paint2_linear_1907_3435" x1="-10.9754" y1="3.31949" x2="9.61058" y2="34.2771" gradientUnits="userSpaceOnUse">
<stop stop-color="#AACC19"/>
<stop offset="1" stop-color="#4B8125"/>
</linearGradient>
</defs>
</svg>
