<svg width="18" height="15" viewBox="0 0 18 15" fill="none" xmlns="http://www.w3.org/2000/svg">
<path d="M17.756 8.6366L3.78054 8.6366C5.31339 10.2462 6.80711 11.8161 8.28686 13.3683C7.70837 13.9671 7.21652 14.4747 6.7093 15C6.67157 14.9676 6.58633 14.9044 6.51507 14.8279C4.51832 12.7283 2.51877 10.6317 0.527604 8.52625C-0.164063 7.79501 -0.178036 7.26387 0.499658 6.5444C2.51038 4.40954 4.53648 2.28792 6.55699 0.161878C6.61707 0.098612 6.68973 0.0485889 6.74982 3.54678e-05C7.23748 0.520878 7.71256 1.02995 8.20441 1.5552C6.73305 3.09272 5.23094 4.66113 3.73023 6.22807L3.80709 6.3752L17.7588 6.3752L17.756 8.6366Z" fill="#919191"/>
</svg>
