<svg width="26" height="25" viewBox="0 0 26 25" fill="none" xmlns="http://www.w3.org/2000/svg">
<path d="M0.237162 23.6664L8.1057 16.0264C6.63921 14.3313 5.75574 12.1501 5.75574 9.76883C5.75574 4.37331 10.2872 0 15.8779 0C21.4685 0 26 4.37331 26 9.76883C26 15.1644 21.4685 19.5377 15.8779 19.5377C13.3384 19.5377 11.0176 18.6327 9.24019 17.1408L1.38299 24.7714C1.06718 25.0762 0.553782 25.0762 0.237162 24.7714C-0.0794582 24.4666 -0.0786495 23.9727 0.237162 23.6664ZM15.8771 17.9879C20.5802 17.9879 24.3934 14.3078 24.3934 9.76883C24.3934 5.22984 20.581 1.54973 15.8771 1.54973C11.1739 1.54973 7.36152 5.22906 7.36152 9.76883C7.36152 14.3086 11.1739 17.9879 15.8771 17.9879Z" fill="#4B8125"/>
</svg>
