<svg width="23" height="24" viewBox="0 0 23 24" fill="none" xmlns="http://www.w3.org/2000/svg">
<path d="M19.6744 0.833496C19.2108 0.833496 18.8336 1.21833 18.8336 1.69125V3.9719L18.3653 3.58742C16.4208 1.9911 13.9762 1.11227 11.4805 1.11227C11.4744 1.11227 11.4683 1.11227 11.4622 1.11227C5.40748 1.12298 0.489857 6.15618 0.500016 12.3332C0.500016 12.8068 0.877253 13.1916 1.34084 13.1916C1.80443 13.1916 2.18167 12.8071 2.18167 12.3342C2.17794 10.1762 2.90532 8.06064 4.22972 6.37726C5.78506 4.4006 8.00209 3.1601 10.4721 2.88443C12.9421 2.60876 15.3694 3.3304 17.307 4.9174L17.9454 5.44006H15.1594C14.6958 5.44006 14.3186 5.82489 14.3186 6.29781C14.3186 6.77073 14.6958 7.15556 15.1594 7.15556H19.6744C20.138 7.15556 20.5152 6.77073 20.5152 6.29781V1.69125C20.5152 1.21833 20.138 0.833496 19.6744 0.833496Z" fill="#4B8125"/>
<path d="M3.32422 23.8332C3.78781 23.8332 4.16505 23.4484 4.16505 22.9754V20.6948L4.63338 21.0793C6.65806 22.7412 9.0908 23.5492 11.5073 23.5492C14.7209 23.5492 17.9071 22.1211 20.074 19.3741C21.6422 17.3861 22.5037 14.8857 22.5 12.3335C22.5 11.8599 22.1227 11.4751 21.6592 11.4751C21.1956 11.4751 20.8183 11.8599 20.8183 12.3328C20.8227 14.8671 19.8593 17.2517 18.1055 19.0473C16.3518 20.843 14.0176 21.8341 11.5327 21.8386H11.5164C9.40641 21.8386 7.33905 21.0969 5.6933 19.7493L5.05498 19.2266H7.83955C8.30314 19.2266 8.68038 18.8418 8.68038 18.3689C8.68038 17.896 8.30314 17.5111 7.83955 17.5111H3.32422C2.86064 17.5111 2.4834 17.896 2.4834 18.3689V22.9748C2.4834 23.4477 2.86064 23.8325 3.32422 23.8325V23.8332Z" fill="#4B8125"/>
</svg>
